@startuml
skinparam classbackgroundcolor #ffffff
skinparam classarrowcolor #000000
skinparam classdiamondbackgroundcolor #ffffff
skinparam classdiamondbordercolor #000000
skinparam classbordercolor #000000
skinparam classfontsize 18
skinparam classfontname "Liberation Mono"
skinparam classattributefontsize 18
skinparam classattributefontname "Liberation Mono"
skinparam classAttributeIconSize 0
hide circle

left to right direction

University "1" *-- "0..20" Department
Department "0..*" o-- "0..5" Professor

class University {

}

class Department {

}

class Professor {

}

@enduml
